<svg xmlns="http://www.w3.org/2000/svg" xmlns:svg="http://www.w3.org/2000/svg" xmlns:xlink="http://www.w3.org/1999/xlink" id="svg6336" x="0" y="0" version="1.1" viewBox="0 0 32 32" xml:space="preserve" style="enable-background:new 0 0 32 32"><style type="text/css">.st0{fill:#231f20}</style><path d="M22.5,7.1H9.5C8.1,7.1,7,8.2,7,9.6v12.8c0,1.4,1.1,2.5,2.5,2.5h12.9c1.4,0,2.5-1.1,2.5-2.5V9.6	C25,8.2,23.9,7.1,22.5,7.1z M11.9,22.9c-1.4,0-2.6-1.2-2.6-2.6s1.2-2.6,2.6-2.6s2.6,1.2,2.6,2.6S13.4,22.9,11.9,22.9z M15.8,16.4	H9.4v-1.7h6.3V16.4z M15.8,13.9H9.4v-1.7h6.3V13.9z M15.8,11.4H9.4V9.8h6.3V11.4z M22.6,18.7h-6.3v-1.7h6.3V18.7z M22.6,16.3h-6.3	v-1.7h6.3V16.3z M22.6,13.8h-6.3v-1.7h6.3V13.8z M22.6,11.4h-6.3V9.7h6.3V11.4z" class="st0"/></svg>